HIERARCHY
ROOT hip
{
  OFFSET 0 90.174 2.4664
  CHANNELS 6 Xposition Yposition Zposition Zrotation Xrotation Yrotation
  JOINT abdomen
  {
    OFFSET 0 -1.186 -1.5018
    CHANNELS 6 Xposition Yposition Zposition Zrotation Xrotation Yrotation
    JOINT abdomen2
    {
      OFFSET 0 9.964 0.2134
      CHANNELS 6 Xposition Yposition Zposition Zrotation Xrotation Yrotation
      JOINT chest
      {
        OFFSET 0 13.134 -3.2573
        CHANNELS 6 Xposition Yposition Zposition Zrotation Xrotation Yrotation
        JOINT neck
        {
          OFFSET 0 20.686 -1.6905
          CHANNELS 6 Xposition Yposition Zposition Zrotation Xrotation Yrotation
          JOINT head
          {
            OFFSET 0 7.238 -0.1237
            CHANNELS 6 Xposition Yposition Zposition Zrotation Xrotation Yrotation
            End Site
            {
              OFFSET 0 0 0
            }
          }
        }
        JOINT lCollar
        {
          OFFSET 1.7069 20.075 5.0056
          CHANNELS 6 Xposition Yposition Zposition Zrotation Xrotation Yrotation
          JOINT lShldr
          {
            OFFSET 13.6458 -0.047 -4.849
            CHANNELS 6 Xposition Yposition Zposition Zrotation Xrotation Yrotation
            JOINT lForeArm
            {
              OFFSET 28.3255 -0.9759 2.2888
              CHANNELS 6 Xposition Yposition Zposition Zrotation Xrotation Yrotation
              JOINT lHand
              {
                OFFSET 22.1583 -0.53 10.8316
                CHANNELS 6 Xposition Yposition Zposition Zrotation Xrotation Yrotation
                JOINT lThumb1
                {
                  OFFSET 0.786 0.112 2.5817
                  CHANNELS 6 Xposition Yposition Zposition Zrotation Xrotation Yrotation
                  JOINT lThumb2
                  {
                    OFFSET 0.3601 -0.878 4.2331
                    CHANNELS 6 Xposition Yposition Zposition Zrotation Xrotation Yrotation
                    JOINT lThumb2_End
                    {
                      OFFSET 1.8127 -1.216 2.2227
                      CHANNELS 6 Xposition Yposition Zposition Zrotation Xrotation Yrotation
                      End Site
                      {
                        OFFSET 0.0181 -0.0122 0.0222
                      }
                    }
                  }
                }
                JOINT lCarpal1
                {
                  OFFSET 0.9571 1.114 1.7695
                  CHANNELS 6 Xposition Yposition Zposition Zrotation Xrotation Yrotation
                  JOINT lIndex1
                  {
                    OFFSET 4.1246 0.487 4.1451
                    CHANNELS 6 Xposition Yposition Zposition Zrotation Xrotation Yrotation
                    JOINT lIndex2
                    {
                      OFFSET 3.4052 -1.454 2.7682
                      CHANNELS 6 Xposition Yposition Zposition Zrotation Xrotation Yrotation
                      JOINT lIndex2_End
                      {
                        OFFSET 1.4531 -1.795 1.2713
                        CHANNELS 6 Xposition Yposition Zposition Zrotation Xrotation Yrotation
                        End Site
                        {
                          OFFSET 0.0145 -0.0179 0.0127
                        }
                      }
                    }
                  }
                  JOINT lMid1
                  {
                    OFFSET 5.6954 0.21 2.1184
                    CHANNELS 6 Xposition Yposition Zposition Zrotation Xrotation Yrotation
                    JOINT lMid2
                    {
                      OFFSET 3.9766 -1.54 2.3863
                      CHANNELS 6 Xposition Yposition Zposition Zrotation Xrotation Yrotation
                      JOINT lMid2_End
                      {
                        OFFSET 1.4042 -1.926 1.125
                        CHANNELS 6 Xposition Yposition Zposition Zrotation Xrotation Yrotation
                        End Site
                        {
                          OFFSET 0.014 -0.0193 0.0113
                        }
                      }
                    }
                  }
                }
                JOINT lCarpal2
                {
                  OFFSET 2.0956 0.66 -0.3894
                  CHANNELS 6 Xposition Yposition Zposition Zrotation Xrotation Yrotation
                  JOINT lRing1
                  {
                    OFFSET 5.0395 -0.09 2.4971
                    CHANNELS 6 Xposition Yposition Zposition Zrotation Xrotation Yrotation
                    JOINT lRing2
                    {
                      OFFSET 3.7921 -1.552 1.4806
                      CHANNELS 6 Xposition Yposition Zposition Zrotation Xrotation Yrotation
                      JOINT lRing2_End
                      {
                        OFFSET 1.4655 -1.808 0.9609
                        CHANNELS 6 Xposition Yposition Zposition Zrotation Xrotation Yrotation
                        End Site
                        {
                          OFFSET 0.0147 -0.0181 0.0096
                        }
                      }
                    }
                  }
                  JOINT lPinky1
                  {
                    OFFSET 4.9141 -1.269 0.3591
                    CHANNELS 6 Xposition Yposition Zposition Zrotation Xrotation Yrotation
                    JOINT lPinky2
                    {
                      OFFSET 3.1477 -1.685 0.8462
                      CHANNELS 6 Xposition Yposition Zposition Zrotation Xrotation Yrotation
                      JOINT lPinky2_End
                      {
                        OFFSET 0.8055 -1.585 0.7955
                        CHANNELS 6 Xposition Yposition Zposition Zrotation Xrotation Yrotation
                        End Site
                        {
                          OFFSET 0.0081 -0.0158 0.008
                        }
                      }
                    }
                  }
                }
              }
            }
          }
        }
        JOINT rCollar
        {
          OFFSET -1.7069 20.075 5.0056
          CHANNELS 6 Xposition Yposition Zposition Zrotation Xrotation Yrotation
          JOINT rShldr
          {
            OFFSET -13.6458 -0.047 -4.849
            CHANNELS 6 Xposition Yposition Zposition Zrotation Xrotation Yrotation
            JOINT rForeArm
            {
              OFFSET -28.3255 -0.9759 2.2888
              CHANNELS 6 Xposition Yposition Zposition Zrotation Xrotation Yrotation
              JOINT rHand
              {
                OFFSET -22.1583 -0.53 10.8316
                CHANNELS 6 Xposition Yposition Zposition Zrotation Xrotation Yrotation
                JOINT rThumb1
                {
                  OFFSET -0.786 0.112 2.5817
                  CHANNELS 6 Xposition Yposition Zposition Zrotation Xrotation Yrotation
                  JOINT rThumb2
                  {
                    OFFSET -0.3601 -0.878 4.2331
                    CHANNELS 6 Xposition Yposition Zposition Zrotation Xrotation Yrotation
                    JOINT rThumb2_End
                    {
                      OFFSET -1.8127 -1.216 2.2227
                      CHANNELS 6 Xposition Yposition Zposition Zrotation Xrotation Yrotation
                      End Site
                      {
                        OFFSET -0.0181 -0.0122 0.0222
                      }
                    }
                  }
                }
                JOINT rCarpal1
                {
                  OFFSET -0.9571 1.114 1.7695
                  CHANNELS 6 Xposition Yposition Zposition Zrotation Xrotation Yrotation
                  JOINT rIndex1
                  {
                    OFFSET -4.1246 0.487 4.1451
                    CHANNELS 6 Xposition Yposition Zposition Zrotation Xrotation Yrotation
                    JOINT rIndex2
                    {
                      OFFSET -3.4052 -1.454 2.7682
                      CHANNELS 6 Xposition Yposition Zposition Zrotation Xrotation Yrotation
                      JOINT rIndex2_End
                      {
                        OFFSET -1.4531 -1.795 1.2713
                        CHANNELS 6 Xposition Yposition Zposition Zrotation Xrotation Yrotation
                        End Site
                        {
                          OFFSET -0.0145 -0.018 0.0127
                        }
                      }
                    }
                  }
                  JOINT rMid1
                  {
                    OFFSET -5.6954 0.21 2.1184
                    CHANNELS 6 Xposition Yposition Zposition Zrotation Xrotation Yrotation
                    JOINT rMid2
                    {
                      OFFSET -3.9766 -1.54 2.3863
                      CHANNELS 6 Xposition Yposition Zposition Zrotation Xrotation Yrotation
                      JOINT rMid2_End
                      {
                        OFFSET -1.4042 -1.926 1.125
                        CHANNELS 6 Xposition Yposition Zposition Zrotation Xrotation Yrotation
                        End Site
                        {
                          OFFSET -0.014 -0.0193 0.0113
                        }
                      }
                    }
                  }
                }
                JOINT rCarpal2
                {
                  OFFSET -2.0956 0.66 -0.3894
                  CHANNELS 6 Xposition Yposition Zposition Zrotation Xrotation Yrotation
                  JOINT rRing1
                  {
                    OFFSET -5.0395 -0.09 2.4971
                    CHANNELS 6 Xposition Yposition Zposition Zrotation Xrotation Yrotation
                    JOINT rRing2
                    {
                      OFFSET -3.7921 -1.552 1.4806
                      CHANNELS 6 Xposition Yposition Zposition Zrotation Xrotation Yrotation
                      JOINT rRing2_End
                      {
                        OFFSET -1.4655 -1.808 0.9609
                        CHANNELS 6 Xposition Yposition Zposition Zrotation Xrotation Yrotation
                        End Site
                        {
                          OFFSET -0.0147 -0.0181 0.0096
                        }
                      }
                    }
                  }
                  JOINT rPinky1
                  {
                    OFFSET -4.9141 -1.269 0.3592
                    CHANNELS 6 Xposition Yposition Zposition Zrotation Xrotation Yrotation
                    JOINT rPinky2
                    {
                      OFFSET -3.1477 -1.685 0.8462
                      CHANNELS 6 Xposition Yposition Zposition Zrotation Xrotation Yrotation
                      JOINT rPinky2_End
                      {
                        OFFSET -0.8055 -1.585 0.7955
                        CHANNELS 6 Xposition Yposition Zposition Zrotation Xrotation Yrotation
                        End Site
                        {
                          OFFSET -0.0081 -0.0158 0.008
                        }
                      }
                    }
                  }
                }
              }
            }
          }
        }
      }
    }
  }
  JOINT lThigh
  {
    OFFSET 8.367 -8.2066 0.5982
    CHANNELS 6 Xposition Yposition Zposition Zrotation Xrotation Yrotation
    JOINT lShin
    {
      OFFSET 2.1923 -43.463 -0.4932
      CHANNELS 6 Xposition Yposition Zposition Zrotation Xrotation Yrotation
      JOINT lFoot
      {
        OFFSET 0.7333 -45.8593 -2.6451
        CHANNELS 6 Xposition Yposition Zposition Zrotation Xrotation Yrotation
        End Site
        {
          OFFSET 2.6618 -4.2699 12.3931
        }
      }
    }
  }
  JOINT rThigh
  {
    OFFSET -8.367 -8.2066 0.5982
    CHANNELS 6 Xposition Yposition Zposition Zrotation Xrotation Yrotation
    JOINT rShin
    {
      OFFSET -2.1923 -43.463 -0.4931
      CHANNELS 6 Xposition Yposition Zposition Zrotation Xrotation Yrotation
      JOINT rFoot
      {
        OFFSET -0.7333 -45.8593 -2.6451
        CHANNELS 6 Xposition Yposition Zposition Zrotation Xrotation Yrotation
        End Site
        {
          OFFSET -2.6618 -4.2699 12.3931
        }
      }
    }
  }
}
MOTION
Frames:	4
Frame Time:	0.0333333
0 90.174 2.4664 0 0 -0 0 -1.186 -1.5018 0 0 -0 0 9.964 0.2134 0 0 -0 0 13.134 -3.2573 0 0 -0 0 20.686 -1.6905 0 0 -0 0 7.238 -0.1237 0 0 -0 1.7069 20.075 5.0056 0 0 -0 13.6458 -0.047 -4.849 1.66051 0.0835086 5.75766 28.3255 -0.9759 2.2888 -0.0175111 0.895433 15.7816 22.1583 -0.53 10.8316 7.95139e-016 -1.98785e-016 -0 0.786 0.112 2.5817 5.46658e-016 -3.97569e-016 -0 0.3601 -0.878 4.2331 5.96354e-016 0 -0 1.8127 -1.216 2.2227 3.97569e-016 1.98785e-016 9.54166e-015 0.9571 1.114 1.7695 1.49089e-016 -3.97569e-016 -0 4.1246 0.487 4.1451 6.4605e-016 0 3.18055e-015 3.4052 -1.454 2.7682 5.96354e-016 0 3.18055e-015 1.4531 -1.795 1.2713 8.94531e-016 -1.98785e-016 6.36111e-015 5.6954 0.21 2.1184 6.4605e-016 0 3.18055e-015 3.9766 -1.54 2.3863 5.96354e-016 0 3.18055e-015 1.4042 -1.926 1.125 8.94531e-016 -1.98785e-016 6.36111e-015 2.0956 0.66 -0.3894 1.49089e-016 -3.97569e-016 -0 5.0395 -0.09 2.4971 6.4605e-016 0 3.18055e-015 3.7921 -1.552 1.4806 5.96354e-016 0 3.18055e-015 1.4655 -1.808 0.9609 8.94531e-016 -1.98785e-016 6.36111e-015 4.9141 -1.269 0.3591 6.4605e-016 0 3.18055e-015 3.1477 -1.685 0.8462 5.96354e-016 0 3.18055e-015 0.8055 -1.585 0.7955 8.94531e-016 -1.98785e-016 6.36111e-015 -1.7069 20.075 5.0056 0 0 -0 -13.6458 -0.047 -4.849 -1.4496 0.0636048 -5.0245 -28.3255 -0.9759 2.2888 -1.74811 1.20616 -16.8394 -22.1583 -0.53 10.8316 -1.19271e-015 1.98785e-016 -3.18055e-015 -0.786 0.112 2.5817 -3.97569e-016 1.98785e-016 -3.18055e-015 -0.3601 -0.878 4.2331 -2.98177e-016 1.98785e-016 -3.18055e-015 -1.8127 -1.216 2.2227 -2.98177e-016 3.97569e-016 -0 -0.9571 1.114 1.7695 4.96962e-016 0 -6.36111e-015 -4.1246 0.487 4.1451 -9.93923e-017 3.97569e-016 -0 -3.4052 -1.454 2.7682 -8.94531e-016 5.96354e-016 -0 -1.4531 -1.795 1.2713 -3.97569e-016 3.97569e-016 -0 -5.6954 0.21 2.1184 -9.93923e-017 3.97569e-016 -0 -3.9766 -1.54 2.3863 -8.94531e-016 5.96354e-016 -0 -1.4042 -1.926 1.125 -3.97569e-016 3.97569e-016 -0 -2.0956 0.66 -0.3894 4.96962e-016 0 -6.36111e-015 -5.0395 -0.09 2.4971 -9.93923e-017 3.97569e-016 -0 -3.7921 -1.552 1.4806 -8.94531e-016 5.96354e-016 -0 -1.4655 -1.808 0.9609 -3.97569e-016 3.97569e-016 -0 -4.9141 -1.269 0.3592 -9.93923e-017 3.97569e-016 -0 -3.1477 -1.685 0.8462 -8.94531e-016 5.96354e-016 -0 -0.8055 -1.585 0.7955 -3.97569e-016 3.97569e-016 -0 8.367 -8.2066 0.5982 -4.66115 -1.03232 0.120763 2.1923 -43.463 -0.4932 0.00990601 1.55097 0.177175 0.7333 -45.8593 -2.6451 4.65196 -0.54114 -0.255042 -8.367 -8.2066 0.5982 4.66115 -1.03222 -0.120763 -2.1923 -43.463 -0.4931 -0.00990459 1.5509 -0.177176 -0.7333 -45.8593 -2.6451 -4.65196 -0.541171 0.255041 
25.0702 13.5578 10.3772 0 66.6644 -0 0 -1.186 -1.5018 -0 -1.18612 -0 0 9.964 0.2134 -0 -2.37225 -0 0 13.134 -3.2573 -0 -2.37225 -0 0 20.686 -1.6905 -1.02031 -4.75718 39.2052 3.55271e-015 7.238 -0.1237 0.23172 3.05226 12.5762 1.7069 20.075 5.0056 -0 -0.000144058 -0 13.6458 -0.047 -4.849 10.8955 -41.8102 -19.9079 28.3255 -0.9759 2.2888 14.0487 -2.13068 -70.7911 22.1583 -0.53 10.8316 15.7403 9.76205 -0.119211 0.786 0.112 2.5817 1.59028e-015 -4.37326e-015 -0 0.3601 -0.878 4.2331 1.59028e-015 -9.93923e-015 1.59028e-015 1.8127 -1.216 2.2227 1.59028e-015 -6.36111e-015 3.18055e-015 0.9571 1.114 1.7695 1.59028e-015 -4.77083e-015 -1.59028e-015 4.1246 0.487 4.1451 6.36111e-015 -3.61788e-014 3.18055e-015 3.4052 -1.454 2.7682 1.54487e-031 -2.78299e-015 3.18055e-015 1.4531 -1.795 1.2713 -1.59028e-015 -1.98785e-016 3.18055e-015 5.6954 0.21 2.1184 6.36111e-015 -3.61788e-014 3.18055e-015 3.9766 -1.54 2.3863 1.54487e-031 -2.78299e-015 3.18055e-015 1.4042 -1.926 1.125 -1.59028e-015 -1.98785e-016 3.18055e-015 2.0956 0.66 -0.3894 1.59028e-015 -4.77083e-015 -1.59028e-015 5.0395 -0.09 2.4971 6.36111e-015 -3.61788e-014 3.18055e-015 3.7921 -1.552 1.4806 1.54487e-031 -2.78299e-015 3.18055e-015 1.4655 -1.808 0.9609 -1.59028e-015 -1.98785e-016 3.18055e-015 4.9141 -1.269 0.3591 6.36111e-015 -3.61788e-014 3.18055e-015 3.1477 -1.685 0.8462 1.54487e-031 -2.78299e-015 3.18055e-015 0.8055 -1.585 0.7955 -1.59028e-015 -1.98785e-016 3.18055e-015 -1.7069 20.075 5.0056 -0 -0.000144058 -0 -13.6458 -0.047 -4.849 -35.0796 -41.7347 20.8132 -28.3255 -0.9759 2.2888 -14.6911 -3.4935 69.7035 -22.1583 -0.53 10.8316 -16.5023 9.39416 0.327322 -0.786 0.112 2.5817 9.45389e-007 -4.1275e-006 -2.87454e-006 -0.3601 -0.878 4.2331 3.18055e-015 -7.95139e-015 -3.18055e-015 -1.8127 -1.216 2.2227 -4.89826e-007 -1.22557e-006 -3.3825e-006 -0.9571 1.114 1.7695 3.18055e-015 4.77083e-015 -0 -4.1246 0.487 4.1451 9.45389e-007 -4.1275e-006 -2.87454e-006 -3.4052 -1.454 2.7682 3.18055e-015 0 -3.18055e-015 -1.4531 -1.795 1.2713 -4.89826e-007 -1.22557e-006 -3.3825e-006 -5.6954 0.21 2.1184 9.45389e-007 -4.1275e-006 -2.87454e-006 -3.9766 -1.54 2.3863 3.18055e-015 0 -3.18055e-015 -1.4042 -1.926 1.125 -4.89826e-007 -1.22557e-006 -3.3825e-006 -2.0956 0.66 -0.3894 3.18055e-015 4.77083e-015 -0 -5.0395 -0.09 2.4971 9.45389e-007 -4.1275e-006 -2.87454e-006 -3.7921 -1.552 1.4806 3.18055e-015 0 -3.18055e-015 -1.4655 -1.808 0.9609 -4.89826e-007 -1.22557e-006 -3.3825e-006 -4.9141 -1.269 0.3592 9.45389e-007 -4.1275e-006 -2.87454e-006 -3.1477 -1.685 0.8462 3.18055e-015 0 -3.18055e-015 -0.8055 -1.585 0.7955 -4.89826e-007 -1.22557e-006 -3.3825e-006 8.367 -8.2066 0.5982 -0.487879 0.0229268 0.267943 2.1923 -43.463 -0.4932 0.143775 1.91233 2.46832 0.7333 -45.8593 -2.6451 7.81839 49.6253 -3.96139 -8.367 -8.2066 0.5982 0.48543 0.152445 -0.178944 -2.1923 -43.463 -0.4931 -0.137762 -0.315457 -2.37724 -0.7333 -45.8593 -2.6451 -7.79982 49.5106 3.94517 
36.352 -22.5977 9.8929 -180 83.3366 -180 0 -1.186 -1.5018 -0 -1.71993 -0 0 9.964 0.2134 -0 -3.43987 -0 0 13.134 -3.2573 -0 -3.43987 -0 0 20.686 -1.6905 0.348252 -4.87699 56.9316 3.55271e-015 7.238 -0.1237 -0.0935523 4.16152 18.2621 1.7069 20.075 5.0056 0 7.72637e-005 -0 13.6458 -0.047 -4.849 -3.84344 -53.3434 -44.9075 28.3255 -0.9759 2.2888 14.5285 -15.76 -107.922 22.1583 -0.53 10.8316 22.7609 14.25 -0.122818 0.786 0.112 2.5817 -2.38542e-015 -4.77083e-015 -0 0.3601 -0.878 4.2331 -2.46547e-007 -8.06825e-007 1.23157e-007 1.8127 -1.216 2.2227 -7.95139e-016 0 -6.36111e-015 0.9571 1.114 1.7695 7.95139e-016 -1.59028e-015 -0 4.1246 0.487 4.1451 -5.56597e-015 1.59028e-015 3.18055e-015 3.4052 -1.454 2.7682 -2.46547e-007 -8.06825e-007 1.23157e-007 1.4531 -1.795 1.2713 -2.38542e-015 -1.59028e-015 -6.36111e-015 5.6954 0.21 2.1184 -5.56597e-015 1.59028e-015 3.18055e-015 3.9766 -1.54 2.3863 -2.46547e-007 -8.06825e-007 1.23157e-007 1.4042 -1.926 1.125 -2.38542e-015 -1.59028e-015 -6.36111e-015 2.0956 0.66 -0.3894 7.95139e-016 -1.59028e-015 -0 5.0395 -0.09 2.4971 -5.56597e-015 1.59028e-015 3.18055e-015 3.7921 -1.552 1.4806 -2.46547e-007 -8.06825e-007 1.23157e-007 1.4655 -1.808 0.9609 -2.38542e-015 -1.59028e-015 -6.36111e-015 4.9141 -1.269 0.3591 -5.56597e-015 1.59028e-015 3.18055e-015 3.1477 -1.685 0.8462 -2.46547e-007 -8.06825e-007 1.23157e-007 0.8055 -1.585 0.7955 -2.38542e-015 -1.59028e-015 -6.36111e-015 -1.7069 20.075 5.0056 0 7.72637e-005 -0 -13.6458 -0.047 -4.849 -31.3646 -53.1932 45.8297 -28.3255 -0.9759 2.2888 -14.3035 -17.0501 107.005 -22.1583 -0.53 10.8316 -23.8623 13.7369 0.376304 -0.786 0.112 2.5817 5.9418e-015 2.52953e-014 1.98785e-016 -0.3601 -0.878 4.2331 -6.08972e-009 -8.41995e-007 -1.41164e-007 -1.8127 -1.216 2.2227 1.05084e-014 1.49089e-016 -9.93923e-017 -0.9571 1.114 1.7695 5.9418e-015 -1.49089e-016 9.93923e-017 -4.1246 0.487 4.1451 5.91151e-015 2.5345e-014 6.65929e-015 -3.4052 -1.454 2.7682 -6.08972e-009 -8.41995e-007 -1.41164e-007 -1.4531 -1.795 1.2713 4.11624e-015 4.96962e-017 -0 -5.6954 0.21 2.1184 5.91151e-015 2.5345e-014 6.65929e-015 -3.9766 -1.54 2.3863 -6.08972e-009 -8.41995e-007 -1.41164e-007 -1.4042 -1.926 1.125 4.11624e-015 4.96962e-017 -0 -2.0956 0.66 -0.3894 5.9418e-015 -1.49089e-016 9.93923e-017 -5.0395 -0.09 2.4971 5.91151e-015 2.5345e-014 6.65929e-015 -3.7921 -1.552 1.4806 -6.08972e-009 -8.41995e-007 -1.41164e-007 -1.4655 -1.808 0.9609 4.11624e-015 4.96962e-017 -0 -4.9141 -1.269 0.3592 5.91151e-015 2.5345e-014 6.65929e-015 -3.1477 -1.685 0.8462 -6.08972e-009 -8.41995e-007 -1.41164e-007 -0.8055 -1.585 0.7955 4.11624e-015 4.96962e-017 -0 8.367 -8.2066 0.5982 1.38015 0.191557 0.322581 2.1923 -43.463 -0.4932 0.136503 2.42724 2.3357 0.7333 -45.8593 -2.6451 12.505 72.185 -7.94217 -8.367 -8.2066 0.5982 -1.38465 0.129244 -0.181787 -2.1923 -43.463 -0.4931 -0.131242 -0.31397 -2.26548 -0.7333 -45.8593 -2.6451 -12.4124 71.7754 7.86823 
33.8448 -14.5953 10.2527 0 89.9969 -0 0 -1.186 -1.5018 -0 -1.60131 -0 0 9.964 0.2134 -0 -3.20259 -0 0 13.134 -3.2573 -0 -3.20261 -0 0 20.686 -1.6905 -0.00183881 -5.00331 52.9985 1.77636e-015 7.238 -0.1237 -0.00144526 3.59882 16.9969 1.7069 20.075 5.0056 -0 -9.63576e-006 -0 13.6458 -0.047 -4.849 0.783156 -51.6125 -38.2546 28.3255 -0.9759 2.2888 15.3806 -12.418 -99.6236 22.1583 -0.53 10.8316 21.206 13.2452 -0.12397 0.786 0.112 2.5817 -3.18055e-015 3.18055e-015 3.18055e-015 0.3601 -0.878 4.2331 -1.59028e-015 1.59028e-015 3.18055e-015 1.8127 -1.216 2.2227 -8.82781e-032 1.59028e-015 3.18055e-015 0.9571 1.114 1.7695 -3.18055e-015 3.18055e-015 3.18055e-015 4.1246 0.487 4.1451 -3.18055e-015 0 3.18055e-015 3.4052 -1.454 2.7682 0 1.59028e-015 -0 1.4531 -1.795 1.2713 8.82781e-032 1.59028e-015 -3.18055e-015 5.6954 0.21 2.1184 -3.18055e-015 0 3.18055e-015 3.9766 -1.54 2.3863 0 1.59028e-015 -0 1.4042 -1.926 1.125 8.82781e-032 1.59028e-015 -3.18055e-015 2.0956 0.66 -0.3894 -3.18055e-015 3.18055e-015 3.18055e-015 5.0395 -0.09 2.4971 -3.18055e-015 0 3.18055e-015 3.7921 -1.552 1.4806 0 1.59028e-015 -0 1.4655 -1.808 0.9609 8.82781e-032 1.59028e-015 -3.18055e-015 4.9141 -1.269 0.3591 -3.18055e-015 0 3.18055e-015 3.1477 -1.685 0.8462 0 1.59028e-015 -0 0.8055 -1.585 0.7955 8.82781e-032 1.59028e-015 -3.18055e-015 -1.7069 20.075 5.0056 -0 -9.63576e-006 -0 -13.6458 -0.047 -4.849 -33.5285 -51.4796 39.1865 -28.3255 -0.9759 2.2888 -15.3463 -13.7697 98.6315 -22.1583 -0.53 10.8316 -22.2326 12.7628 0.3697 -0.786 0.112 2.5817 5.36719e-015 0 4.77083e-015 -0.3601 -0.878 4.2331 1.98785e-015 -1.59028e-015 4.77083e-015 -1.8127 -1.216 2.2227 1.39149e-015 -1.59028e-015 3.18055e-015 -0.9571 1.114 1.7695 4.17448e-015 -1.59028e-015 3.18055e-015 -4.1246 0.487 4.1451 7.95139e-016 -1.59028e-015 1.11319e-014 -3.4052 -1.454 2.7682 2.18663e-015 0 3.18055e-015 -1.4531 -1.795 1.2713 2.18663e-015 1.59028e-015 3.18055e-015 -5.6954 0.21 2.1184 7.95139e-016 -1.59028e-015 1.11319e-014 -3.9766 -1.54 2.3863 2.18663e-015 0 3.18055e-015 -1.4042 -1.926 1.125 2.18663e-015 1.59028e-015 3.18055e-015 -2.0956 0.66 -0.3894 4.17448e-015 -1.59028e-015 3.18055e-015 -5.0395 -0.09 2.4971 7.95139e-016 -1.59028e-015 1.11319e-014 -3.7921 -1.552 1.4806 2.18663e-015 0 3.18055e-015 -1.4655 -1.808 0.9609 2.18663e-015 1.59028e-015 3.18055e-015 -4.9141 -1.269 0.3592 7.95139e-016 -1.59028e-015 1.11319e-014 -3.1477 -1.685 0.8462 2.18663e-015 0 3.18055e-015 -0.8055 -1.585 0.7955 2.18663e-015 1.59028e-015 3.18055e-015 8.367 -8.2066 0.5982 0.964905 0.274957 0.314624 2.1923 -43.463 -0.4932 0.123819 2.10053 2.12008 0.7333 -45.8593 -2.6451 10.2471 67.3192 -5.76983 -8.367 -8.2066 0.5982 -0.969039 0.142883 -0.181841 -2.1923 -43.463 -0.4931 -0.119194 -0.309723 -2.05844 -0.7333 -45.8593 -2.6451 -10.1848 66.8702 5.72578 
